<?xml version="1.0" encoding="UTF-8"?>
<svg xmlns="http://www.w3.org/2000/svg" viewBox="0 0 120 40">
  <!-- 4x4 Grid -->
  <g id="grid">
    <!-- Row 1 -->
    <rect x="2" y="2" width="7" height="7" rx="1" fill="currentColor" opacity="0.9"/>
    <rect x="11" y="2" width="7" height="7" rx="1" fill="currentColor" opacity="0.9"/>
    <circle cx="19.5" cy="5.5" r="3.5" fill="currentColor" opacity="0.9"/>
    <circle cx="28.5" cy="5.5" r="3.5" fill="#ff6600"/>
    
    <!-- Row 2 -->
    <rect x="2" y="11" width="7" height="7" rx="1" fill="currentColor" opacity="0.9"/>
    <rect x="11" y="11" width="7" height="7" rx="1" fill="currentColor" opacity="0.9"/>
    <rect x="20" y="11" width="7" height="7" rx="1" fill="#ff6600"/>
    <circle cx="30.5" cy="14.5" r="3.5" fill="currentColor" opacity="0.9"/>
    
    <!-- Row 3 -->
    <rect x="2" y="20" width="7" height="7" rx="1" fill="currentColor" opacity="0.9"/>
    <rect x="11" y="20" width="7" height="7" rx="1" fill="#ff6600"/>
    <rect x="20" y="20" width="7" height="7" rx="1" fill="currentColor" opacity="0.9"/>
    <rect x="29" y="20" width="7" height="7" rx="1" fill="currentColor" opacity="0.9"/>
    
    <!-- Row 4 -->
    <rect x="2" y="29" width="7" height="7" rx="1" fill="#ff6600"/>
    <rect x="11" y="29" width="7" height="7" rx="1" fill="currentColor" opacity="0.9"/>
    <rect x="20" y="29" width="7" height="7" rx="1" fill="currentColor" opacity="0.9"/>
    <rect x="29" y="29" width="7" height="7" rx="1" fill="currentColor" opacity="0.9"/>
  </g>
  
  <!-- adaptTo() text -->
  <text x="42" y="26" font-family="sans-serif" font-size="18" font-weight="700" fill="currentColor">adaptTo()</text>
</svg>

